Coordinates
version=1
nRows=14
nColumns=40
inDegrees=yes

Units are S.I. units (second, meters, Newtons, ...)
Angles are in degrees.

endheader
time	pelvis_tilt	pelvis_list	pelvis_rotation	pelvis_tx	pelvis_ty	pelvis_tz	hip_flexion_r	hip_adduction_r	hip_rotation_r	knee_angle_r	knee_angle_r_beta	ankle_angle_r	subtalar_angle_r	mtp_angle_r	hip_flexion_l	hip_adduction_l	hip_rotation_l	knee_angle_l	knee_angle_l_beta	ankle_angle_l	subtalar_angle_l	mtp_angle_l	lumbar_extension	lumbar_bending	lumbar_rotation	arm_flex_r	arm_add_r	arm_rot_r	elbow_flex_r	pro_sup_r	wrist_flex_r	wrist_dev_r	arm_flex_l	arm_add_l	arm_rot_l	elbow_flex_l	pro_sup_l	wrist_flex_l	wrist_dev_l
     15.61750000	     -4.82285403	     -6.46575899	     -2.54238046	      0.92916201	      0.91778900	      0.43848782	     27.38620222	     -5.95983145	     -7.64089412	     62.66583244	     62.66583244	      1.95751817	    -17.74477217	      2.80954816	     18.79500242	     -6.08459204	     -6.27920553	     32.33152487	     32.33152487	     20.97891724	    -18.01035240	     10.13363529	    -11.97371551	      6.66982893	      2.30944804	      3.14289205	    -12.97407675	    -11.68659891	     24.97053541	     46.80881515	      0.00000000	      0.00000000	     16.69204501	    -20.47776901	     -8.74084027	     62.21575374	     47.38278299	      0.00000000	      0.00000000
     15.63700000	     -5.10586332	     -6.53748039	     -3.34426820	      0.92669628	      0.91869371	      0.43877916	     28.67433677	     -5.49857299	     -7.56919121	     62.07060878	     62.07060878	      2.75943331	    -17.61540375	      4.40621953	     18.28465110	     -6.32192845	     -7.09490167	     31.54389127	     31.54389127	     20.78120767	    -17.91096610	      9.56038859	    -12.13124343	      6.67857228	      2.45552851	      1.06650834	    -12.95776952	    -12.80879601	     25.07534011	     46.86746883	      0.00000000	      0.00000000	     16.28563975	    -20.36040023	     -8.73579572	     65.77102647	     47.44816759	      0.00000000	      0.00000000
     15.65650000	     -5.41750190	     -6.58632337	     -4.17723709	      0.92428339	      0.92017962	      0.43929762	     29.68253214	     -5.04137778	     -7.67191462	     60.58580744	     60.58580744	      3.23832098	    -17.38099887	      4.37761136	     17.61199579	     -6.49175977	     -7.90327047	     30.41753546	     30.41753546	     20.65242918	    -17.79853733	      9.57944633	    -12.14947770	      6.72694224	      2.52364966	     -0.60942931	    -13.05584876	    -13.06577134	     24.62056845	     46.88969363	      0.00000000	      0.00000000	     16.55751035	    -20.10320561	     -8.86954672	     67.13259222	     47.48511558	      0.00000000	      0.00000000
     15.67600000	     -5.84347042	     -6.64660499	     -5.01482871	      0.92184189	      0.92186746	      0.44010924	     30.54947058	     -4.49575328	     -7.87284499	     58.30873016	     58.30873016	      3.54032070	    -17.07115016	      3.46050359	     16.93296376	     -6.69301733	     -8.79364107	     29.01751104	     29.01751104	     20.03541597	    -17.66465539	      8.63814969	    -12.12586388	      6.80288500	      2.28976980	     -2.29129281	    -13.10883766	    -13.96727951	     25.47728815	     46.89401978	      0.00000000	      0.00000000	     15.95561317	    -20.12531939	     -9.01365982	     69.97348969	     47.55478347	      0.00000000	      0.00000000
     15.69550000	     -6.25065463	     -6.65350075	     -5.90318769	      0.91943325	      0.92390383	      0.44122432	     31.19389347	     -3.89058105	     -8.03321074	     55.38366133	     55.38366133	      4.03712254	    -16.46240683	      2.98730632	     16.09130867	     -6.80097298	     -9.71407705	     27.38513925	     27.38513925	     19.67772788	    -17.43706682	      8.67109740	    -12.07328479	      6.81022298	      2.41628835	     -3.63709516	    -13.29926968	    -14.19507300	     25.39793780	     46.89771658	      0.00000000	      0.00000000	     16.11983909	    -19.75926170	     -9.05002337	     71.51399932	     47.58898648	      0.00000000	      0.00000000
     15.71500000	     -6.91587166	     -6.69341581	     -6.78035268	      0.91685357	      0.92559164	      0.44264366	     31.91905279	     -3.16297190	     -8.27477631	     51.87182095	     51.87182095	      4.50065225	    -15.51927961	      2.80052771	     15.59175984	     -6.98843607	    -10.59546242	     25.84930629	     25.84930629	     19.34981165	    -17.12215438	      8.83289093	    -11.69907783	      6.91300336	      2.23503133	     -4.63557905	    -13.51320000	    -14.34025386	     25.39448980	     46.89786381	      0.00000000	      0.00000000	     16.12996760	    -19.55527638	     -8.99061573	     72.52095164	     47.60265901	      0.00000000	      0.00000000
     15.73450000	     -7.26222790	     -6.64628634	     -7.67296203	      0.91467016	      0.92751048	      0.44428060	     31.86947977	     -2.49235097	     -8.51814255	     47.37947510	     47.37947510	      3.23068535	    -14.88543210	     -2.44096149	     14.45072249	     -7.01829387	    -11.71715864	     23.73724279	     23.73724279	     17.84856284	    -17.06626309	      6.20195075	    -11.85529249	      6.82316710	      2.20217675	     -6.41251285	    -13.60027452	    -15.23374736	     28.22448668	     46.76899148	      0.00000000	      0.00000000	     15.39483001	    -19.37154185	     -9.13897561	     76.43101361	     47.72516383	      0.00000000	      0.00000000
     15.75400000	     -7.78469460	     -6.63494583	     -8.52580531	      0.91233630	      0.92896805	      0.44615349	     31.96801224	     -1.68221554	     -8.71579704	     42.81551602	     42.81551602	      3.52613320	    -12.93029745	     -2.43450263	     13.76020585	     -7.11572152	    -12.62309166	     22.16955374	     22.16955374	     17.58721717	    -16.66255495	      6.41112167	    -11.65424137	      6.87042259	      2.18054625	     -7.09725721	    -13.89913404	    -15.33547242	     28.32467545	     46.76195583	      0.00000000	      0.00000000	     15.54079785	    -19.03935811	     -8.90479727	     77.64888894	     47.73356496	      0.00000000	      0.00000000
     15.77350000	     -8.23183022	     -6.52632613	     -9.34204608	      0.91026892	      0.92989238	      0.44823850	     31.72631477	     -0.99571699	     -9.01292599	     37.78568884	     37.78568884	      3.18451063	    -10.39411371	     -4.31201524	     12.94803666	     -7.09187095	    -13.59194270	     20.47598621	     20.47598621	     16.70577104	    -16.44577645	      4.99978132	    -11.60308532	      6.75501250	      1.99471763	     -8.13873187	    -14.02893256	    -15.78845492	     30.44651628	     46.66464226	      0.00000000	      0.00000000	     14.97646267	    -19.10551172	     -8.48335096	     80.81863940	     47.78515522	      0.00000000	      0.00000000
     15.79300000	     -8.64209149	     -6.37986069	    -10.07236644	      0.90846285	      0.93034206	      0.45048879	     31.25913554	     -0.30002382	     -9.29041162	     32.55117106	     32.55117106	      2.91592792	     -7.24995884	     -5.05709331	     12.20470857	     -7.03412162	    -14.51702919	     19.00270767	     19.00270767	     16.02703454	    -16.14344341	      3.74917369	    -11.46690448	      6.64794928	      2.00146326	     -8.94965575	    -14.17451940	    -15.90626184	     31.77791087	     46.57452429	      0.00000000	      0.00000000	     15.16096091	    -18.76747334	     -8.12447847	     82.34566146	     47.82466756	      0.00000000	      0.00000000
     15.81250000	     -8.98141841	     -6.12717805	    -10.71880365	      0.90703459	      0.93021791	      0.45283042	     30.63614455	      0.22772730	     -9.69079518	     27.42094741	     27.42094741	      2.89787760	     -3.12737283	     -4.56776774	     11.54100945	     -6.86730310	    -15.38450441	     17.84211241	     17.84211241	     15.78677676	    -15.68949327	      3.17712727	    -11.31264396	      6.44056970	      1.92222071	     -9.32404521	    -14.27294400	    -16.00617284	     32.41784047	     46.53843355	      0.00000000	      0.00000000	     15.38822802	    -18.43791871	     -7.63107960	     83.69793780	     47.83020128	      0.00000000	      0.00000000
     15.83200000	     -9.36073629	     -5.92046390	    -11.25437114	      0.90599864	      0.92946432	      0.45538292	     29.87363820	      0.96431964	     -9.66466287	     22.25580408	     22.25580408	      2.51552301	      0.20864452	     -3.49285079	     11.08797876	     -6.77252563	    -15.98681418	     17.04590663	     17.04590663	     15.80722122	    -15.42573746	      2.78078240	    -10.98369906	      6.35299711	      1.72534444	     -9.41179820	    -14.32110017	    -16.06981094	     32.80340921	     46.52159922	      0.00000000	      0.00000000	     15.59078724	    -18.08025167	     -7.22346350	     84.48646377	     47.82481809	      0.00000000	      0.00000000
     15.85150000	     -9.41769683	     -5.58314259	    -11.68094231	      0.90566165	      0.92840894	      0.45785457	     28.99222482	      1.19206679	    -10.46849675	     18.08246725	     18.08246725	      3.16470587	      5.40435536	     -0.14765928	     10.21268786	     -6.47127439	    -16.81843392	     16.03909737	     16.03909737	     14.86044280	    -15.29515873	     -0.30051086	    -11.02037088	      6.07425222	      1.68365553	    -10.08638879	    -14.31265008	    -16.41487625	     34.99264594	     46.41427067	      0.00000000	      0.00000000	     15.79222629	    -17.90273266	     -6.20155394	     85.89291406	     47.83104626	      0.00000000	      0.00000000
     15.87100000	     -9.49961382	     -5.16661003	    -11.99585764	      0.90589770	      0.92697919	      0.46044465	     28.16992324	      1.39308435	    -10.92853572	     14.37198846	     14.37198846	      3.09495013	      9.43921817	      1.88090305	      9.48327971	     -6.07582411	    -17.41923979	     15.32115979	     15.32115979	     14.82930360	    -14.90861041	     -1.28089023	    -10.82600894	      5.77326016	      1.61363512	    -10.11691483	    -14.27945729	    -16.46188309	     35.44430103	     46.38343588	      0.00000000	      0.00000000	     16.15346100	    -17.36558761	     -5.49500677	     86.34783643	     47.81870756	      0.00000000	      0.00000000
